<?xml version="1.0" encoding="UTF-8"?>
<svg id="Capa_2" xmlns="http://www.w3.org/2000/svg" version="1.1" viewBox="0 0 999.4 247.5">
  <!-- Generator: Adobe Illustrator 30.3.0, SVG Export Plug-In . SVG Version: 2.1.3 Build 182)  -->
  <defs>
    <style>
      .st0 {
        fill: #f85f62;
      }
    </style>
  </defs>
  <g id="Capa_1-2">
    <g>
      <g>
        <path class="st0" d="M170.6,201c-48.5,0-77.1-39.1-77.1-83.5s28.6-83.5,77.1-83.5,77.1,39.1,77.1,83.5-28.4,83.5-77.1,83.5ZM182.5,194.6c29.5,1.1,44.1-24.7,44.1-52.6,0-59-26.3-99.9-67.9-101.5-34.1-1.4-44.1,28.6-44.1,58.1,0,54.7,24.7,94.5,67.9,96.1h0ZM154.2,223c16.7,0,38.2-4.8,58.1-4.8s40.9,5.7,51,28.8l-.2.5c-5.7-11.2-16.7-14.2-30.6-14.2s-35.7,4.1-54.2,4.1-37.5-4.6-49.2-23.1l.5-.2c5,6.9,14,8.9,24.7,8.9h0Z"/>
        <path class="st0" d="M385.6,72.5v125.1h-21v-38.4c-5,27.7-26.1,40.9-46.4,40.9s-43.7-15.6-43.7-45.5v-73.4l21-8.7v82.1c0,22.6,16,36.1,32.7,36.1s36.4-15.6,36.4-51.9v-57.6s21-8.7,21-8.7Z"/>
        <path class="st0" d="M416.7,44.4c0-7.3,5.9-13,13-13s13.3,5.7,13.3,13-5.9,13-13.3,13-13-5.7-13-13ZM419.2,81.2l21-8.7v125.1h-21v-116.4Z"/>
        <path class="st0" d="M588.9,151.4c-6.6,32.7-33.6,48.9-60.1,48.9s-60.1-20.8-60.1-62.9,30-64.5,58.5-64.5,51.7,16.7,51.7,46.7-.9,9.4-10.5,9.4c-22,0-61.1-.2-83.3-.2,3.4,37.3,28.6,53.7,53.5,53.7s41.4-11.2,49.6-31.3l.7.2h0ZM523.1,75.5c-19,0-38.2,14.9-38.2,50.1h60.1c11.2,0,15.3-1.1,15.3-11.2,0-24.2-18.5-38.9-37.3-38.9h0ZM529.9,53.7l-1.1-1.1L563.1,0l12.4,10.8-45.5,43h0Z"/>
        <path class="st0" d="M673.8,72.3v21.7c-4.1-1.1-7.8-1.6-11.2-1.6-18.5,0-27.2,15.6-27.2,31.1v74.1h-21v-116.4l21-8.7v37c4.1-19.7,17.8-37.3,38.4-37.3h0Z"/>
        <path class="st0" d="M806.4,151.4c-6.6,32.7-33.6,48.9-60.1,48.9s-60.1-20.8-60.1-62.9,30-64.5,58.5-64.5,51.7,16.7,51.7,46.7-.9,9.4-10.5,9.4c-21.9,0-61.1-.2-83.2-.2,3.4,37.3,28.6,53.7,53.5,53.7s41.4-11.2,49.6-31.3l.7.2h0ZM740.6,75.5c-19,0-38.2,14.9-38.2,50.1h60.1c11.2,0,15.3-1.1,15.3-11.2,0-24.2-18.5-38.9-37.3-38.9h0Z"/>
        <path class="st0" d="M853.1,7.5v190.1h-21V16.2s21-8.7,21-8.7Z"/>
        <path class="st0" d="M999.4,136.3c0,33.9-21.7,63.6-59,63.6s-59-29.7-59-63.6,21.7-63.8,59-63.8,59,30,59,63.8ZM980.5,150.5c-4.3-45.3-25.2-74.8-54-72.5-23.1,1.8-27.9,25.6-25.8,48.3,4.1,42.1,23.8,70.7,53.5,68.4,20.1-1.6,28.1-22.6,26.3-44.1h0Z"/>
      </g>
      <path class="st0" d="M37.2,156.2c-2.1-19.5-17.6-35.1-37.2-37.2,19.5-2.1,35.1-17.6,37.2-37.2,2.1,19.5,17.6,35.1,37.2,37.2-19.5,2.1-35.1,17.6-37.2,37.2Z"/>
    </g>
  </g>
</svg>